HIERARCHY
ROOT Hips
{
  OFFSET -14.983 27.831 -222.231
  CHANNELS 6 Xposition Yposition Zposition Zrotation Xrotation Yrotation
  JOINT LeftUpLeg
  {
    OFFSET 7.982 -6.241 3.949
    CHANNELS 6 Xposition Yposition Zposition Zrotation Xrotation Yrotation
    JOINT LeftLeg
    {
      OFFSET 0.000 -49.992 0.000
      CHANNELS 6 Xposition Yposition Zposition Zrotation Xrotation Yrotation
      JOINT LeftFoot
      {
        OFFSET -0.000 -41.314 -0.000
        CHANNELS 6 Xposition Yposition Zposition Zrotation Xrotation Yrotation
        End Site
        {
          OFFSET 0.000 -8.360 4.827
        }
      }
    }
  }
  JOINT RightUpLeg
  {
    OFFSET -7.548 -7.022 4.120
    CHANNELS 6 Xposition Yposition Zposition Zrotation Xrotation Yrotation
    JOINT RightLeg
    {
      OFFSET 0.000 -49.292 0.000
      CHANNELS 6 Xposition Yposition Zposition Zrotation Xrotation Yrotation
      JOINT RightFoot
      {
        OFFSET -0.000 -42.862 -0.000
        CHANNELS 6 Xposition Yposition Zposition Zrotation Xrotation Yrotation
        End Site
        {
          OFFSET 0.000 -8.184 4.725
        }
      }
    }
  }
  JOINT Spine
  {
    OFFSET 0.000 5.223 -5.223
    CHANNELS 6 Xposition Yposition Zposition Zrotation Xrotation Yrotation
    JOINT LeftShoulder
    {
      OFFSET -0.000 33.359 0.000
      CHANNELS 6 Xposition Yposition Zposition Zrotation Xrotation Yrotation
      JOINT LeftArm
      {
        OFFSET 18.426 0.000 -0.000
        CHANNELS 6 Xposition Yposition Zposition Zrotation Xrotation Yrotation
        JOINT LeftForeArm
        {
          OFFSET 24.208 0.000 0.000
          CHANNELS 6 Xposition Yposition Zposition Zrotation Xrotation Yrotation
          JOINT LeftHand
          {
            OFFSET 25.469 -0.000 -0.000
            CHANNELS 6 Xposition Yposition Zposition Zrotation Xrotation Yrotation
            JOINT LeftHandThumb1
            {
            OFFSET 4.970 -0.620 3.390
            CHANNELS 6 Xposition Yposition Zposition Zrotation Xrotation Yrotation
              JOINT LeftHandThumb2
              {
              OFFSET 2.150 -0.000 0.000
              CHANNELS 6 Xposition Yposition Zposition Zrotation Xrotation Yrotation
                JOINT LeftHandThumb3
                {
                OFFSET 2.200 -0.000 0.000
                CHANNELS 6 Xposition Yposition Zposition Zrotation Xrotation Yrotation
                  JOINT LeftHandThumb4
                  {
                  OFFSET 1.700 -0.000 0.000
                  CHANNELS 6 Xposition Yposition Zposition Zrotation Xrotation Yrotation
                  }
                }
              }
            }
            JOINT LeftHandIndex1
            {
            OFFSET 8.730 0.680 2.070
            CHANNELS 6 Xposition Yposition Zposition Zrotation Xrotation Yrotation
              JOINT LeftHandIndex2
              {
              OFFSET 2.670 -0.000 0.000
              CHANNELS 6 Xposition Yposition Zposition Zrotation Xrotation Yrotation
                JOINT LeftHandIndex3
                {
                OFFSET 2.130 -0.000 0.000
                CHANNELS 6 Xposition Yposition Zposition Zrotation Xrotation Yrotation
                  JOINT LeftHandIndex4
                  {
                  OFFSET 1.800 -0.000 0.000
                  CHANNELS 6 Xposition Yposition Zposition Zrotation Xrotation Yrotation
                  }
                }
              }
            }
            JOINT LeftHandMiddle1
            {
            OFFSET 9.220 0.670 0.550
            CHANNELS 6 Xposition Yposition Zposition Zrotation Xrotation Yrotation
              JOINT LeftHandMiddle2
              {
              OFFSET 2.660 -0.000 0.000
              CHANNELS 6 Xposition Yposition Zposition Zrotation Xrotation Yrotation
                JOINT LeftHandMiddle3
                {
                OFFSET 2.280 -0.000 0.000
                CHANNELS 6 Xposition Yposition Zposition Zrotation Xrotation Yrotation
                  JOINT LeftHandMiddle4
                  {
                  OFFSET 1.500 -0.000 0.000
                  CHANNELS 6 Xposition Yposition Zposition Zrotation Xrotation Yrotation
                  }
                }
              }
            }
            JOINT LeftHandRing1
            {
            OFFSET 9.250 0.670 -1.130
            CHANNELS 6 Xposition Yposition Zposition Zrotation Xrotation Yrotation
              JOINT LeftHandRing2
              {
              OFFSET 2.470 -0.000 0.000
              CHANNELS 6 Xposition Yposition Zposition Zrotation Xrotation Yrotation
                JOINT LeftHandRing3
                {
                OFFSET 2.210 -0.000 0.000
                CHANNELS 6 Xposition Yposition Zposition Zrotation Xrotation Yrotation
                  JOINT LeftHandRing4
                  {
                  OFFSET 1.800 -0.000 0.000
                  CHANNELS 6 Xposition Yposition Zposition Zrotation Xrotation Yrotation
                  }
                }
              }
            }
            JOINT LeftHandPinky1
            {
            OFFSET 9.350 0.660 -2.720
            CHANNELS 6 Xposition Yposition Zposition Zrotation Xrotation Yrotation
              JOINT LeftHandPinky2
              {
              OFFSET 1.630 -0.000 0.000
              CHANNELS 6 Xposition Yposition Zposition Zrotation Xrotation Yrotation
                JOINT LeftHandPinky3
                {
                OFFSET 1.710 -0.000 0.000
                CHANNELS 6 Xposition Yposition Zposition Zrotation Xrotation Yrotation
                  JOINT LeftHandPinky4
                  {
                  OFFSET 1.800 -0.000 0.000
                  CHANNELS 6 Xposition Yposition Zposition Zrotation Xrotation Yrotation
                  }
                }
              }
            }
          }
        }
      }
    }
    JOINT RightShoulder
    {
      OFFSET -0.000 33.359 0.000
      CHANNELS 6 Xposition Yposition Zposition Zrotation Xrotation Yrotation
      JOINT RightArm
      {
        OFFSET -19.752 0.000 -0.000
        CHANNELS 6 Xposition Yposition Zposition Zrotation Xrotation Yrotation
        JOINT RightForeArm
        {
          OFFSET -21.560 0.000 0.000
          CHANNELS 6 Xposition Yposition Zposition Zrotation Xrotation Yrotation
          JOINT RightHand
          {
            OFFSET -26.162 0.000 -0.000
            CHANNELS 6 Xposition Yposition Zposition Zrotation Xrotation Yrotation
            JOINT RightHandThumb1
            {
            OFFSET -4.970 -0.620 3.390
            CHANNELS 6 Xposition Yposition Zposition Zrotation Xrotation Yrotation
              JOINT RightHandThumb2
              {
              OFFSET -2.150 0.000 0.000
              CHANNELS 6 Xposition Yposition Zposition Zrotation Xrotation Yrotation
                JOINT RightHandThumb3
                {
                OFFSET -2.200 0.000 0.000
                CHANNELS 6 Xposition Yposition Zposition Zrotation Xrotation Yrotation
                  JOINT RightHandThumb4
                  {
                  OFFSET -1.700 0.000 0.000
                  CHANNELS 6 Xposition Yposition Zposition Zrotation Xrotation Yrotation
                  }
                }
              }
            }
            JOINT RightHandIndex1
            {
            OFFSET -8.730 0.680 2.070
            CHANNELS 6 Xposition Yposition Zposition Zrotation Xrotation Yrotation
              JOINT RightHandIndex2
              {
              OFFSET -2.670 0.000 0.000
              CHANNELS 6 Xposition Yposition Zposition Zrotation Xrotation Yrotation
                JOINT RightHandIndex3
                {
                OFFSET -2.130 0.000 0.000
                CHANNELS 6 Xposition Yposition Zposition Zrotation Xrotation Yrotation
                  JOINT RightHandIndex4
                  {
                  OFFSET -1.800 0.000 0.000
                  CHANNELS 6 Xposition Yposition Zposition Zrotation Xrotation Yrotation
                  }
                }
              }
            }
            JOINT RightHandMiddle1
            {
            OFFSET -9.220 0.670 0.550
            CHANNELS 6 Xposition Yposition Zposition Zrotation Xrotation Yrotation
              JOINT RightHandMiddle2
              {
              OFFSET -2.660 0.000 0.000
              CHANNELS 6 Xposition Yposition Zposition Zrotation Xrotation Yrotation
                JOINT RightHandMiddle3
                {
                OFFSET -2.280 0.000 0.000
                CHANNELS 6 Xposition Yposition Zposition Zrotation Xrotation Yrotation
                  JOINT RightHandMiddle4
                  {
                  OFFSET -1.500 0.000 0.000
                  CHANNELS 6 Xposition Yposition Zposition Zrotation Xrotation Yrotation
                  }
                }
              }
            }
            JOINT RightHandRing1
            {
            OFFSET -9.250 0.670 -1.130
            CHANNELS 6 Xposition Yposition Zposition Zrotation Xrotation Yrotation
              JOINT RightHandRing2
              {
              OFFSET -2.470 0.000 0.000
              CHANNELS 6 Xposition Yposition Zposition Zrotation Xrotation Yrotation
                JOINT RightHandRing3
                {
                OFFSET -2.210 0.000 0.000
                CHANNELS 6 Xposition Yposition Zposition Zrotation Xrotation Yrotation
                  JOINT RightHandRing4
                  {
                  OFFSET -1.800 0.000 0.000
                  CHANNELS 6 Xposition Yposition Zposition Zrotation Xrotation Yrotation
                  }
                }
              }
            }
            JOINT RightHandPinky1
            {
            OFFSET -9.350 0.660 -2.720
            CHANNELS 6 Xposition Yposition Zposition Zrotation Xrotation Yrotation
              JOINT RightHandPinky2
              {
              OFFSET -1.630 0.000 0.000
              CHANNELS 6 Xposition Yposition Zposition Zrotation Xrotation Yrotation
                JOINT RightHandPinky3
                {
                OFFSET -1.710 0.000 0.000
                CHANNELS 6 Xposition Yposition Zposition Zrotation Xrotation Yrotation
                  JOINT RightHandPinky4
                  {
                  OFFSET -1.800 0.000 0.000
                  CHANNELS 6 Xposition Yposition Zposition Zrotation Xrotation Yrotation
                  }
                }
              }
            }
          }
        }
      }
    }
    JOINT Neck
    {
      OFFSET -0.000 33.359 0.000
      CHANNELS 6 Xposition Yposition Zposition Zrotation Xrotation Yrotation
      JOINT Head
      {
        OFFSET -0.000 21.651 -0.000
        CHANNELS 6 Xposition Yposition Zposition Zrotation Xrotation Yrotation
        End Site
        {
          OFFSET -0.000 0.087 -0.000
        }
      }
    }
  }
}
MOTION
Frames:	6
Frame Time:	0.0333333
-39.7689 29.492 -225.742 7.423 18.1884 -20.6258 8.16727 -6.98926 3.07918 11.1545 -22.4443 1.70321 0 -52.4076 -2.38419e-05 -1.57827 19.5708 -1.81224e-06 1.19209e-05 -42.8572 0 12.1673 -21.0991 10.2832 -7.82803 -8.0399 3.27446 -5.05572 -19.6701 -1.43411 2.38419e-05 -51.3778 5.96046e-05 5.09455 14.3625 -1.23385e-05 -2.38419e-05 -41.2165 -5.96046e-05 -14.8988 -26.1968 -14.2414 1.19209e-05 5.357 -5.35697 0.729362 -16.5905 -0.73759 2.38419e-05 33.3591 -4.76837e-05 -27.8012 1.53679e-05 0.780102 18.7124 6.14673e-06 -4.76837e-05 -41.3437 33.5779 2.81473 24.0753 2.38419e-05 2.38419e-05 -1.10363e-06 -6.93037e-06 -108.096 26.7628 1.19209e-05 1.19209e-05 1.10963 -0.0302297 -8.89664 0.0062 0.0497 0.0339 -45 0 0 0 0.0215 0 0 -45 0 0 0.022 0 0 -45 0 0 0.017 0 0 0 0 -0.0068 0.0873 0.0207 -45 0 0 0 0.0267 0 -80 0 0 0 0.0213 0 -90 0 0 0 0.018 0 0 0 0 -0.0067 0.0922 0.0055 -45 0 0 0 0.0266 0 -80 0 0 0 0.0228 0 -90 0 0 0 0.015 0 0 0 0 -0.0067 0.0925 -0.0113 -45 0 0 0 0.0247 0 -80 0 0 0 0.0221 0 -90 0 0 0 0.018 0 0 0 0 -0.0066 0.0935 -0.0272 -45 0 0 0 0.0163 0 -80 0 0 0 0.0171 0 -90 0 0 0 0.018 0 0 0 0 2.38419e-05 33.3591 -4.76837e-05 20.1054 4.26887e-07 -0.698674 -20.8935 0 0 58.8305 26.169 -8.74282 -21.5827 -1.49012e-05 2.38419e-05 1.02879e-05 5.54954e-06 82.5889 -24.8048 1.19209e-05 -2.38419e-05 -5.02402 -0.0218851 -8.2304 -0.0062 0.0497 0.0339 45 0 0 0 0.0215 0 0 -45 0 0 0.022 0 0 -45 0 0 0.017 0 0 0 0 0.0068 0.0873 0.0207 45 0 0 0 0.0267 0 80 0 0 0 0.0213 0 90 0 0 0 0.018 0 0 0 0 0.0067 0.0922 0.0055 45 0 0 0 0.0266 0 80 0 0 0 0.0228 0 90 0 0 0 0.015 0 0 0 0 0.0067 0.0925 -0.0113 45 0 0 0 0.0247 0 80 0 0 0 0.0221 0 90 0 0 0 0.018 0 0 0 0 0.0066 0.0935 -0.0272 45 0 0 0 0.0163 0 80 0 0 0 0.0171 0 90 0 0 0 0.018 0 0 0 0 2.38419e-05 33.3591 -4.76837e-05 5.13423 17.4113 -1.54006 1.19209e-05 21.2646 0 8.96462e-06 -1.02453e-05 1.70755e-06 
-38.4058 29.4126 -226.052 7.61474 18.3636 -20.3018 8.1385 -7.01331 3.12355 11.2764 -22.1881 1.96338 1.19209e-05 -52.2579 0 -2.74657 18.9752 -7.22267e-06 0 -42.6369 2.38419e-05 12.4605 -20.8734 10.5717 -7.81788 -7.97361 3.26743 -5.76116 -20.309 -1.62041 0 -51.1399 0 4.53613 14.4096 -3.52602e-06 -1.19209e-05 -41.2726 4.76837e-05 -15.0633 -25.4713 -14.2917 -1.19209e-05 5.36073 -5.36071 0.663747 -16.7863 -0.789026 0 33.3591 2.38419e-05 -27.6826 9.39151e-06 0.476625 18.7115 2.6077e-05 -2.38419e-05 -41.8042 33.3548 3.19147 24.0429 -3.57628e-05 0 1.25622e-05 -6.91378e-06 -108.051 26.8502 2.38419e-05 -1.19209e-05 1.44036 -0.0397628 -8.84905 0.0062 0.0497 0.0339 -45 0 0 0 0.0215 0 0 -45 0 0 0.022 0 0 -45 0 0 0.017 0 0 0 0 -0.0068 0.0873 0.0207 -45 0 0 0 0.0267 0 -80 0 0 0 0.0213 0 -90 0 0 0 0.018 0 0 0 0 -0.0067 0.0922 0.0055 -45 0 0 0 0.0266 0 -80 0 0 0 0.0228 0 -90 0 0 0 0.015 0 0 0 0 -0.0067 0.0925 -0.0113 -45 0 0 0 0.0247 0 -80 0 0 0 0.0221 0 -90 0 0 0 0.018 0 0 0 0 -0.0066 0.0935 -0.0272 -45 0 0 0 0.0163 0 -80 0 0 0 0.0171 0 -90 0 0 0 0.018 0 0 0 0 0 33.3591 2.38419e-05 20.071 -6.83019e-06 -0.428662 -20.8055 -1.19209e-05 -2.38419e-05 58.9986 26.0172 -9.34237 -21.5837 5.96046e-06 -7.15256e-05 7.52213e-06 6.4033e-06 83.1302 -24.9882 -1.19209e-05 -1.78814e-05 -3.83027 -0.0560218 -7.57932 -0.0062 0.0497 0.0339 45 0 0 0 0.0215 0 0 -45 0 0 0.022 0 0 -45 0 0 0.017 0 0 0 0 0.0068 0.0873 0.0207 45 0 0 0 0.0267 0 80 0 0 0 0.0213 0 90 0 0 0 0.018 0 0 0 0 0.0067 0.0922 0.0055 45 0 0 0 0.0266 0 80 0 0 0 0.0228 0 90 0 0 0 0.015 0 0 0 0 0.0067 0.0925 -0.0113 45 0 0 0 0.0247 0 80 0 0 0 0.0221 0 90 0 0 0 0.018 0 0 0 0 0.0066 0.0935 -0.0272 45 0 0 0 0.0163 0 80 0 0 0 0.0171 0 90 0 0 0 0.018 0 0 0 0 0 33.3591 2.38419e-05 4.69434 16.8347 -1.36233 -1.19209e-05 21.3282 -9.53674e-05 7.68396e-06 -3.41509e-06 1.70755e-06 
-32.4026 29.3035 -227.273 8.147 19.5426 -18.6136 8.14245 -7.07695 3.32396 9.99573 -22.3969 2.24761 1.19209e-05 -51.5463 2.38419e-05 -5.47761 16.4057 -1.78002e-06 2.38419e-05 -41.7965 3.57628e-05 12.8487 -19.6213 10.9743 -7.88915 -7.80247 3.27513 -7.46498 -22.9291 -1.94564 0 -50.5715 0 0.704928 14.2159 -1.76149e-06 1.19209e-05 -41.3386 -1.19209e-05 -14.0008 -22.3507 -12.925 5.96046e-06 5.34716 -5.34716 0.379703 -17.7219 -0.900731 0 33.3591 7.15256e-05 -27.0431 1.53679e-05 -0.0608382 18.9578 9.68575e-06 -4.76837e-05 -42.93 31.2651 1.82983 24.1425 -2.38419e-05 2.38419e-05 -3.77192e-07 -2.5267e-06 -106.981 24.441 -1.19209e-05 0 -6.42067 0.246729 -6.59727 0.0062 0.0497 0.0339 -45 0 0 0 0.0215 0 0 -45 0 0 0.022 0 0 -45 0 0 0.017 0 0 0 0 -0.0068 0.0873 0.0207 -45 0 0 0 0.0267 0 -80 0 0 0 0.0213 0 -90 0 0 0 0.018 0 0 0 0 -0.0067 0.0922 0.0055 -45 0 0 0 0.0266 0 -80 0 0 0 0.0228 0 -90 0 0 0 0.015 0 0 0 0 -0.0067 0.0925 -0.0113 -45 0 0 0 0.0247 0 -80 0 0 0 0.0221 0 -90 0 0 0 0.018 0 0 0 0 -0.0066 0.0935 -0.0272 -45 0 0 0 0.0163 0 -80 0 0 0 0.0171 0 -90 0 0 0 0.018 0 0 0 0 0 33.3591 7.15256e-05 20.1696 -3.84198e-06 0.055678 -20.7093 1.19209e-05 -2.38419e-05 58.8816 24.3751 -10.4365 -21.0434 8.9407e-06 4.76837e-05 4.46268e-05 4.26887e-06 83.3717 -25.8262 5.96046e-06 -2.38419e-05 -2.84192 -0.0723701 -6.90232 -0.0062 0.0497 0.0339 45 0 0 0 0.0215 0 0 -45 0 0 0.022 0 0 -45 0 0 0.017 0 0 0 0 0.0068 0.0873 0.0207 45 0 0 0 0.0267 0 80 0 0 0 0.0213 0 90 0 0 0 0.018 0 0 0 0 0.0067 0.0922 0.0055 45 0 0 0 0.0266 0 80 0 0 0 0.0228 0 90 0 0 0 0.015 0 0 0 0 0.0067 0.0925 -0.0113 45 0 0 0 0.0247 0 80 0 0 0 0.0221 0 90 0 0 0 0.018 0 0 0 0 0.0066 0.0935 -0.0272 45 0 0 0 0.0163 0 80 0 0 0 0.0171 0 90 0 0 0 0.018 0 0 0 0 0 33.3591 7.15256e-05 5.97169 14.7065 -1.52119 1.19209e-05 21.5816 -7.15256e-05 9.39151e-06 -9.39151e-06 1.70755e-06 
-32.4026 29.3035 -227.273 8.147 19.5426 -18.6136 8.14245 -7.07695 3.32396 9.99573 -22.3969 2.24761 1.19209e-05 -51.5463 2.38419e-05 -5.47761 16.4057 -1.78002e-06 2.38419e-05 -41.7965 3.57628e-05 12.8487 -19.6213 10.9743 -7.88915 -7.80247 3.27513 -7.46498 -22.9291 -1.94564 0 -50.5715 0 0.704928 14.2159 -1.76149e-06 1.19209e-05 -41.3386 -1.19209e-05 -14.0008 -22.3507 -12.925 5.96046e-06 5.34716 -5.34716 0.379703 -17.7219 -0.900731 0 33.3591 7.15256e-05 -27.0431 1.53679e-05 -0.0608382 18.9578 9.68575e-06 -4.76837e-05 -42.93 31.2651 1.82983 24.1425 -2.38419e-05 2.38419e-05 -3.77192e-07 -2.5267e-06 -106.981 24.441 -1.19209e-05 0 -6.42067 0.246729 -6.59727 0.0062 0.0497 0.0339 -45 0 0 0 0.0215 0 0 -45 0 0 0.022 0 0 -45 0 0 0.017 0 0 0 0 -0.0068 0.0873 0.0207 -45 0 0 0 0.0267 0 -80 0 0 0 0.0213 0 -90 0 0 0 0.018 0 0 0 0 -0.0067 0.0922 0.0055 -45 0 0 0 0.0266 0 -80 0 0 0 0.0228 0 -90 0 0 0 0.015 0 0 0 0 -0.0067 0.0925 -0.0113 -45 0 0 0 0.0247 0 -80 0 0 0 0.0221 0 -90 0 0 0 0.018 0 0 0 0 -0.0066 0.0935 -0.0272 -45 0 0 0 0.0163 0 -80 0 0 0 0.0171 0 -90 0 0 0 0.018 0 0 0 0 0 33.3591 7.15256e-05 20.1696 -3.84198e-06 0.055678 -20.7093 1.19209e-05 -2.38419e-05 58.8816 24.3751 -10.4365 -21.0434 8.9407e-06 4.76837e-05 4.46268e-05 4.26887e-06 83.3717 -25.8262 5.96046e-06 -2.38419e-05 -2.84192 -0.0723701 -6.90232 -0.0062 0.0497 0.0339 45 0 0 0 0.0215 0 0 -45 0 0 0.022 0 0 -45 0 0 0.017 0 0 0 0 0.0068 0.0873 0.0207 45 0 0 0 0.0267 0 80 0 0 0 0.0213 0 90 0 0 0 0.018 0 0 0 0 0.0067 0.0922 0.0055 45 0 0 0 0.0266 0 80 0 0 0 0.0228 0 90 0 0 0 0.015 0 0 0 0 0.0067 0.0925 -0.0113 45 0 0 0 0.0247 0 80 0 0 0 0.0221 0 90 0 0 0 0.018 0 0 0 0 0.0066 0.0935 -0.0272 45 0 0 0 0.0163 0 80 0 0 0 0.0171 0 90 0 0 0 0.018 0 0 0 0 0 33.3591 7.15256e-05 5.97169 14.7065 -1.52119 1.19209e-05 21.5816 -7.15256e-05 9.39151e-06 -9.39151e-06 1.70755e-06 
-30.0526 29.3133 -227.663 8.24345 20.1623 -17.9317 8.10726 -7.07396 3.40049 9.11028 -22.774 2.165 0 -51.3112 -2.38419e-05 -5.8876 15.348 -3.54139e-06 0 -41.4907 1.19209e-05 12.7699 -19.0686 10.9004 -7.86679 -7.74959 3.30403 -7.16061 -23.782 -1.93317 -1.19209e-05 -50.3018 2.38419e-05 -0.137141 14.489 3.52728e-06 -1.19209e-05 -41.6535 -3.57628e-05 -12.7537 -21.849 -11.7502 1.78814e-05 5.33623 -5.33624 0.342495 -18.2014 -1.01091 -1.78814e-05 33.3591 -2.38419e-05 -27.193 1.10991e-05 -0.0142128 18.9813 -1.86265e-05 4.76837e-05 -42.0712 31.7046 0.924617 24.2106 -1.19209e-05 -2.38419e-05 3.93915e-05 -1.05752e-05 -107.097 24.6053 2.38419e-05 0 -7.6492 0.196005 -4.95843 0.0062 0.0497 0.0339 -45 0 0 0 0.0215 0 0 -45 0 0 0.022 0 0 -45 0 0 0.017 0 0 0 0 -0.0068 0.0873 0.0207 -45 0 0 0 0.0267 0 -80 0 0 0 0.0213 0 -90 0 0 0 0.018 0 0 0 0 -0.0067 0.0922 0.0055 -45 0 0 0 0.0266 0 -80 0 0 0 0.0228 0 -90 0 0 0 0.015 0 0 0 0 -0.0067 0.0925 -0.0113 -45 0 0 0 0.0247 0 -80 0 0 0 0.0221 0 -90 0 0 0 0.018 0 0 0 0 -0.0066 0.0935 -0.0272 -45 0 0 0 0.0163 0 -80 0 0 0 0.0171 0 -90 0 0 0 0.018 0 0 0 0 -1.78814e-05 33.3591 -2.38419e-05 19.9967 -3.62854e-06 0.0130457 -20.6629 0 -4.76837e-05 58.4694 25.2888 -10.6753 -20.7589 1.63913e-05 2.38419e-05 2.3122e-05 3.4151e-06 83.5868 -26.2365 -2.98023e-06 -2.38419e-05 -3.40864 -0.0537614 -9.00439 -0.0062 0.0497 0.0339 45 0 0 0 0.0215 0 0 -45 0 0 0.022 0 0 -45 0 0 0.017 0 0 0 0 0.0068 0.0873 0.0207 45 0 0 0 0.0267 0 80 0 0 0 0.0213 0 90 0 0 0 0.018 0 0 0 0 0.0067 0.0922 0.0055 45 0 0 0 0.0266 0 80 0 0 0 0.0228 0 90 0 0 0 0.015 0 0 0 0 0.0067 0.0925 -0.0113 45 0 0 0 0.0247 0 80 0 0 0 0.0221 0 90 0 0 0 0.018 0 0 0 0 0.0066 0.0935 -0.0272 45 0 0 0 0.0163 0 80 0 0 0 0.0171 0 90 0 0 0 0.018 0 0 0 0 -1.78814e-05 33.3591 -2.38419e-05 6.15905 13.9834 -1.4937 -1.19209e-05 21.646 2.38419e-05 1.06722e-05 -6.83019e-06 3.4151e-06 
-27.7202 29.3916 -228.049 8.44752 20.8602 -16.9954 8.08291 -7.07713 3.50852 7.67559 -23.4096 1.69462 0 -51.1824 0 -5.83958 14.379 0 -5.96046e-06 -41.1631 -4.76837e-05 12.5593 -18.5601 10.7097 -7.87178 -7.68023 3.31731 -6.70487 -24.5893 -2.16035 -1.78814e-05 -50.1378 2.38419e-05 -0.256395 15.1264 -3.53767e-06 -5.96046e-06 -41.7359 -2.38419e-05 -10.747 -21.5243 -9.97418 1.19209e-05 5.32273 -5.32272 0.246969 -18.7729 -1.14437 -5.96046e-06 33.3591 4.76837e-05 -27.151 1.70755e-05 0.243511 19.1238 -9.68575e-06 -7.15256e-05 -41.125 32.3854 0.418578 24.264 1.19209e-05 1.19209e-05 4.13859e-05 2.61531e-06 -107.596 25.1777 -1.19209e-05 5.96046e-06 -7.68289 0.13201 -3.86676 0.0062 0.0497 0.0339 -45 0 0 0 0.0215 0 0 -45 0 0 0.022 0 0 -45 0 0 0.017 0 0 0 0 -0.0068 0.0873 0.0207 -45 0 0 0 0.0267 0 -80 0 0 0 0.0213 0 -90 0 0 0 0.018 0 0 0 0 -0.0067 0.0922 0.0055 -45 0 0 0 0.0266 0 -80 0 0 0 0.0228 0 -90 0 0 0 0.015 0 0 0 0 -0.0067 0.0925 -0.0113 -45 0 0 0 0.0247 0 -80 0 0 0 0.0221 0 -90 0 0 0 0.018 0 0 0 0 -0.0066 0.0935 -0.0272 -45 0 0 0 0.0163 0 -80 0 0 0 0.0171 0 -90 0 0 0 0.018 0 0 0 0 -5.96046e-06 33.3591 4.76837e-05 19.9011 -2.34788e-06 -0.226387 -20.5707 1.78814e-05 -2.38419e-05 57.9499 26.4361 -10.9001 -20.5115 0 -2.38419e-05 -2.40711e-05 9.39151e-06 84.0143 -26.5845 -2.98023e-06 -5.96046e-06 -4.33233 -0.0328325 -11.4583 -0.0062 0.0497 0.0339 45 0 0 0 0.0215 0 0 -45 0 0 0.022 0 0 -45 0 0 0.017 0 0 0 0 0.0068 0.0873 0.0207 45 0 0 0 0.0267 0 80 0 0 0 0.0213 0 90 0 0 0 0.018 0 0 0 0 0.0067 0.0922 0.0055 45 0 0 0 0.0266 0 80 0 0 0 0.0228 0 90 0 0 0 0.015 0 0 0 0 0.0067 0.0925 -0.0113 45 0 0 0 0.0247 0 80 0 0 0 0.0221 0 90 0 0 0 0.018 0 0 0 0 0.0066 0.0935 -0.0272 45 0 0 0 0.0163 0 80 0 0 0 0.0171 0 90 0 0 0 0.018 0 0 0 0 -5.96046e-06 33.3591 4.76837e-05 6.1756 13.4016 -1.43662 -1.19209e-05 21.6996 2.38419e-05 8.11085e-06 -1.10991e-05 3.4151e-06 
